# xmcd CD database file
#
# Track frame offsets:
#	150
#	11223
#	21430
#	33690
#	44458
#	57193
#	69128
#	82350
#	95100
#	108963
#	121620
#	131263
#	144053
#	156378
#	168225
#	180090
#	192673
#	204263
#
# Disc length: 2879 seconds
#
# Revision: 0
# Processed by: cddbd v1.5.2PL0 Copyright (c) Steve Scherf et al.
# Submitted via: CDex 1.51
#
DISCID=f10b3d12
DTITLE=Buchanan Brothers - Atomic Power
DYEAR=1996
DGENRE=Country
TTITLE0=High Tempered Mama
TTITLE1=The Heartsick Blues
TTITLE2=Atomic Power
TTITLE3=(When You See) Those Flying Saucers
TTITLE4=The Silver Meteor
TTITLE5=There's A Power Greater Than Atomic
TTITLE6=Just Hangin' On
TTITLE7=Am I Stil P-a-r-t Of Your H-e-a-r-t
TTITLE8=Left By The Wayside
TTITLE9=My Little Boy Blue
TTITLE10=Hootin Nanny Papa
TTITLE11=Then You'll Be The One To Cry
TTITLE12=Singing An Old Hymn
TTITLE13=Mama I'm Sick
TTITLE14=I Got Worries
TTITLE15=Don't Cry(My Coney Island Baby)
TTITLE16=Shut That Gate
TTITLE17=When I Put On My Long White Robe
EXTD=YEAR: 1996
EXTT0=
EXTT1=
EXTT2=
EXTT3=
EXTT4=
EXTT5=
EXTT6=
EXTT7=
EXTT8=
EXTT9=
EXTT10=
EXTT11=
EXTT12=
EXTT13=
EXTT14=
EXTT15=
EXTT16=
EXTT17=
PLAYORDER=
